# xmcd
#
# Track frame offsets: 
#        150
#        23113
#        37332
#        53940
#        68344
#        94040
#        107150
#        122564
#        141883
#        153565
#        193944
#        211541
#        239970
#
# Disc length: 4482 seconds
#
# Revision: 1
# Processed by: cddbd v1.5.2PL0 Copyright (c) Steve Scherf et al.
# Submitted via: ExactAudioCopy v1.1
#
DISCID=bb11800d
DTITLE=Harlem - Przebudzenie
DYEAR=2013
DGENRE=Rock/Blues
TTITLE0=Oddychaj
TTITLE1=Agata
TTITLE2=Nie Zapomnij Mnie
TTITLE3=Porucznik Slawek B.
TTITLE4=Pod Wiatr
TTITLE5=Gdanski Swit
TTITLE6=Idz Juz Spac
TTITLE7=Gdzies W Sercu
TTITLE8=Swiat Nas Zmienia
TTITLE9=Nim Przyjdzie Wiosna
TTITLE10=Fala
TTITLE11=Mazurski Cud (Bonus)
TTITLE12=Oddychaj (Teledysk)
EXTD=
EXTT0=
EXTT1=
EXTT2=
EXTT3=
EXTT4=
EXTT5=
EXTT6=
EXTT7=
EXTT8=
EXTT9=
EXTT10=
EXTT11=
EXTT12=
PLAYORDER=
